<svg aria-hidden="true" style="position:absolute;width:0;height:0;overflow:hidden" xmlns="http://www.w3.org/2000/svg"><defs><symbol id="menu-burger" viewBox="0 0 46 32"><path fill="none" stroke="#d41443" style="stroke:var(--color1, #d41443)" stroke-width="2.3" d="M0 2.3h45.7M0 16h45.7M0 29.7h45.7"/></symbol><symbol id="menu-close" viewBox="0 0 32 32"><path fill="none" stroke="#fff" style="stroke:var(--color2, #fff)" stroke-width="2" d="m2.6 2 26.8 28M2 29.4 30 2.6"/></symbol><symbol id="icon-facebook" viewBox="0 0 16 28"><path d="M15 .2v4.1h-2.5c-1.9 0-2.2 1-2.2 2.3v3h4.5l-.6 4.5h-4V26H5.5V14.1h-4V9.5h4V6.1c0-4 2.4-6.1 6-6.1l3.5.2z"/></symbol><symbol id="icon-github" viewBox="0 0 24 28"><path d="M12 2a12 12 0 0 1 3.8 23.4c-.6.1-.8-.3-.8-.6v-3.3c0-1.1-.4-1.8-.8-2.2 2.6-.3 5.5-1.3 5.5-6 0-1.2-.5-2.3-1.3-3.1.1-.4.6-1.6-.1-3.2-1-.3-3.3 1.2-3.3 1.2a11.3 11.3 0 0 0-6 0S6.7 6.7 5.7 7a4.3 4.3 0 0 0-.1 3.2c-.8.8-1.3 1.9-1.3 3.2 0 4.6 2.8 5.6 5.5 5.9-.3.3-.6.8-.8 1.6-.6.3-2.4.9-3.4-1-.7-1.1-1.9-1.2-1.9-1.2-1.2 0 0 .7 0 .7.7.4 1.3 1.8 1.3 1.8.7 2.1 4 1.4 4 1.4v2.2c0 .3-.2.7-.8.6A12 12 0 0 1 12 2zM4.5 19.2V19h-.3l.1.3h.2zm.5.6v-.3h-.3v.2H5zm.5.7v-.3c0-.1-.2-.2-.3-.1v.3c0 .2.2.1.3 0zm.7.6-.1-.3h-.3v.3c.2 0 .3.1.4 0zm.8.4s0-.2-.2-.2h-.3l.2.3H7zm1 0h-.5c0 .2.1.3.3.3l.2-.2zm1 0c0-.2-.2-.2-.3-.2-.2 0-.3.1-.3.2l.3.2c.1 0 .3-.2.2-.3z"/></symbol><symbol id="icon-paper-plane" viewBox="0 0 28 28"><path d="M27.6.2c.3.2.4.6.4 1l-4 24a1 1 0 0 1-1 .8 1 1 0 0 1-.4 0l-7-3-3.8 4.6a1 1 0 0 1-.8.4h-.3a1 1 0 0 1-.7-1v-5.5L23.5 5 6.8 19.5.6 16.9a1 1 0 0 1-.1-1.8l26-15L27 0c.2 0 .4 0 .6.2z"/></symbol></defs></svg>